<?xml version="1.0" encoding="utf-8"?>
<!-- Generator: Adobe Illustrator 22.0.1, SVG Export Plug-In . SVG Version: 6.00 Build 0)  -->
<svg version="1.1" id="Layer_1" xmlns="http://www.w3.org/2000/svg" xmlns:xlink="http://www.w3.org/1999/xlink" x="0px" y="0px"
	 viewBox="0 0 1920 1080" style="enable-background:new 0 0 1920 1080;" xml:space="preserve">
<style type="text/css">
	.st0{fill:none;}
</style>
<g>
	<path class="st0" d="M1449,938.8c-289.3,0-578.5,0-867.9,0c0-281.1,0-562.3,0-843.6c289.2,0,578.6,0,867.9,0
		C1449,376.3,1449,657.5,1449,938.8z M667.1,394.1c6.3-0.7,11.9-1.5,17.5-1.9c17.6-1.3,35.2-1.4,52.6,2.8c4.5,1.1,7.9,3.2,9.9,7.4
		c1.9,3.9,4.1,7.6,6,11.4c14.8,31,29.4,62,44.2,92.9c37.3,77.9,77.1,154.6,119.7,229.8c17.1,30.2,34.6,60.2,52,90.2
		c2.6,4.5,4.5,5.2,9.2,2.9c4-2.1,8.1-4.4,11.6-7.3c27.8-22.3,51.4-48.6,72.2-77.4c5.7-7.9,10.6-16.1,12.9-25.8
		c4.9-20.4,9.7-40.9,15.8-60.9c22.2-73.1,54.3-141.9,92-208.1c24.7-43.4,52-85.2,81.3-125.7c26.8-37.1,55.3-72.9,85-107.8
		c4.3-5,8.2-10.3,12-15.7c1-1.4,0.9-3.6,1.4-5.5c-1.9,0.3-4,0.1-5.6,0.9c-3.3,1.5-6.4,3.4-9.4,5.4c-19.4,13-37.3,27.9-54.2,44
		c-22.7,21.5-49.1,34.9-80.3,37.7c-25.2,2.3-50.5,4.7-75.7,5.2c-42.8,0.8-85.7,1-128.4-0.1c-62.3-1.6-124.6-5.1-186.9-6.9
		c-22.6-0.7-45.2,0.8-67.8,1.9c-7.3,0.3-14.9,1.6-20.8,6.6c-5,4.3-9.8,8.8-14.2,13.7c-15.5,17.3-26.7,37.4-36.8,58.1
		C677,372.4,672.2,383.1,667.1,394.1z"/>
	<path d="M667.1,394.1c5.1-11,9.9-21.7,14.9-32.1c10.1-20.8,21.3-40.8,36.8-58.1c4.4-4.9,9.2-9.4,14.2-13.7
		c5.9-5.1,13.5-6.3,20.8-6.6c22.6-1,45.2-2.5,67.8-1.9c62.3,1.8,124.6,5.3,186.9,6.9c42.8,1.1,85.6,0.9,128.4,0.1
		c25.3-0.5,50.5-2.9,75.7-5.2c31.2-2.9,57.6-16.2,80.3-37.7c16.9-16,34.8-31,54.2-44c3-2,6.2-3.9,9.4-5.4c1.7-0.8,3.8-0.6,5.6-0.9
		c-0.4,1.9-0.3,4.1-1.4,5.5c-3.8,5.4-7.7,10.7-12,15.7c-29.7,34.8-58.2,70.6-85,107.8c-29.3,40.5-56.5,82.3-81.3,125.7
		c-37.8,66.2-69.9,135-92,208.1c-6.1,20.1-10.8,40.5-15.8,60.9c-2.4,9.7-7.3,17.9-12.9,25.8c-20.8,28.9-44.4,55.1-72.2,77.4
		c-3.5,2.8-7.5,5.2-11.6,7.3c-4.7,2.4-6.6,1.7-9.2-2.9c-17.4-30-34.9-60-52-90.2c-42.5-75.2-82.3-151.9-119.7-229.8
		c-14.8-30.9-29.4-62-44.2-92.9c-1.8-3.9-4.1-7.6-6-11.4c-2-4.3-5.4-6.4-9.9-7.4c-17.4-4.2-35-4-52.6-2.8
		C679,392.6,673.4,393.4,667.1,394.1z M876.9,385.2c0.6,2.2,0.8,3.4,1.2,4.5c6.8,17.4,12.9,35.1,20.5,52.2
		c24.7,55.2,53.6,108.3,85.6,159.6c9.9,16,21,31.2,32.2,46.4c5.3,7.3,7.9,7.1,13-0.5c5.9-8.7,11.5-17.6,16.2-27
		c22-43.7,43.5-87.7,65.6-131.4c17.4-34.5,35.9-68.4,58.3-100c1.4-2,2.8-4,5-7.1c-8.8-0.8-16.5-1.9-24.3-2
		c-37.4-0.6-74.9-1.9-112.3-1.3c-47.5,0.7-95,2.9-142.5,4.6C889.5,383.2,883.5,384.4,876.9,385.2z"/>
	<path class="st0" d="M876.9,385.2c6.6-0.8,12.5-2,18.5-2.3c47.5-1.7,95-3.8,142.5-4.6c37.4-0.6,74.9,0.6,112.3,1.3
		c7.7,0.1,15.4,1.3,24.3,2c-2.2,3.1-3.6,5.1-5,7.1c-22.4,31.6-40.9,65.5-58.3,100c-22.1,43.7-43.6,87.7-65.6,131.4
		c-4.7,9.3-10.3,18.3-16.2,27c-5.1,7.6-7.7,7.8-13,0.5c-11.1-15.2-22.2-30.4-32.2-46.4c-31.9-51.3-60.9-104.4-85.6-159.6
		c-7.6-17-13.7-34.8-20.5-52.2C877.8,388.6,877.5,387.4,876.9,385.2z M1025.9,619.4c5.1-4.4,6.3-10,3.5-15.1
		c-9.2-17.1-18.3-34.1-27.7-51.1c-26.8-48.5-53.7-96.9-80.6-145.4c-2.8-5-4.3-5.8-10-4.9c-3.3,0.5-4.9,2.1-3.9,5.5
		c0.9,3.2,1.5,6.6,2.9,9.6c8.9,18.5,17.5,37.3,27.2,55.4c24.6,45.7,50.9,90.5,79.7,133.8C1019.7,611.3,1022.8,615.2,1025.9,619.4z"
		/>
	<path d="M1025.9,619.4c-3.1-4.2-6.2-8.1-8.9-12.2c-28.7-43.3-55-88.1-79.7-133.8c-9.7-18.1-18.3-36.8-27.2-55.4
		c-1.4-3-2-6.4-2.9-9.6c-0.9-3.4,0.6-5,3.9-5.5c5.7-0.9,7.2-0.2,10,4.9c26.9,48.5,53.8,96.9,80.6,145.4c9.4,16.9,18.5,34,27.7,51.1
		C1032.1,609.4,1031,615,1025.9,619.4z"/>
</g>
</svg>
